<svg xmlns="http://www.w3.org/2000/svg" xmlns:xlink="http://www.w3.org/1999/xlink" viewBox="0 0 258 230"><defs><style>.cls-1{fill:#0a3a67;}.cls-2{fill:#1e9cd7;}.cls-3{fill:url(#verlauf);}.cls-4{fill:url(#verlauf-2);}.cls-5{fill:#0075be;}.cls-6{fill:url(#verlauf-3);}.cls-7{fill:url(#verlauf-4);}.cls-8{fill:#bbd5f1;}</style><linearGradient id="verlauf" x1="107.41" y1="233.11" x2="108.2" y2="233.11" gradientUnits="userSpaceOnUse"><stop offset="0" stop-color="#bbd5f1"/><stop offset="0.07" stop-color="#b2d2ef"/><stop offset="0.18" stop-color="#98c8eb"/><stop offset="0.33" stop-color="#6fb9e4"/><stop offset="0.5" stop-color="#36a5db"/><stop offset="0.57" stop-color="#1e9cd7"/><stop offset="0.87" stop-color="#0075be"/><stop offset="0.99" stop-color="#005b97"/></linearGradient><linearGradient id="verlauf-2" x1="108.2" y1="233.89" x2="110.11" y2="233.89" xlink:href="#verlauf"/><linearGradient id="verlauf-3" x1="196.83" y1="234.52" x2="198.29" y2="234.52" xlink:href="#verlauf"/><linearGradient id="verlauf-4" x1="198.62" y1="233.5" x2="200.02" y2="233.5" xlink:href="#verlauf"/></defs>
 <g class="layer">
  <path class="cls-1" d="m62.375625,175.500313l-28.2,-16.28c-0.42,-0.29 -0.83,-0.57 -1.39,-0.89c-12.27,-7.1 -21.27,-15.62 -24.27,-21.05l4.25,7.41l10.75,18.73l0,0l30.34,52.55a28.28,28.28 0 0 0 24.52,14.16l21.29,0l28.66,-16.54l-65.95,-38.09z" id="svg_1"/>
  <path class="cls-2" d="m229.515625,155.160313l-35.46,20.48l-65.73,37.95l-28.66,16.54l78.88,0a28.31,28.31 0 0 0 24.53,-14.16l26.32,-45.59l0,0l18.7,-32.38c-0.09,0.17 -0.2,0.32 -0.29,0.49c-3.77,6.97 -9.22,11.24 -18.29,16.67z" id="svg_2"/>
  <path class="cls-2" d="m29.195625,56.970313c3.93,-6.81 10.32,-10.62 17.88,-12.39a48.4,48.4 0 0 1 10.23,-1.2l152.1,0.12c0.65,-10.93 -1.64,-22 -5.87,-28.59l-0.43,-0.75a28.33,28.33 0 0 0 -24.53,-14.16l-100.17,0a28.3,28.3 0 0 0 -24.52,14.16l-16.86,29.2l0,0l-7.83,13.61z" id="svg_3"/>
  <path class="cls-3" d="m82.715625,187.160313l-0.79,-0.46l0,0l0.79,0.46z" id="svg_4"/>
  <path class="cls-4" d="m82.715625,187.160313l1.91,1.1l-1.91,-1.1z" id="svg_5"/>
  <path class="cls-5" d="m81.925625,186.700312c-16.69,-9.64 -20.87,-22.46 -22.64,-37.66l-12.21,-104.46c-7.54,1.77 -14,5.58 -17.88,12.39l-25.4,43.94a28.31,28.31 0 0 0 0,28.32l8.93,15.46l-4.21,-7.41c3,5.43 12,13.95 24.31,21c0.56,0.32 1,0.6 1.39,0.89l28.2,16.28l0,-0.09l19.51,11.34z" id="svg_6"/>
  <path class="cls-6" d="m171.345625,188.760312l1.46,-0.84l-1.46,0.84z" id="svg_7"/>
  <path class="cls-7" d="m174.515625,186.920312l0,0l-1.4,0.81l1.4,-0.81z" id="svg_8"/>
  <path class="cls-8" d="m253.185625,100.910313l-33.21,-57.52l0,0l-16.34,-28.31l-0.11,-0.18l0,0c4.23,6.56 6.52,17.66 5.87,28.59c-0.08,1.22 -0.16,2.44 -0.31,3.65l0,0l-12.1,103.68c-1.88,14.53 -6.31,26.83 -22.45,36.15l19.55,-11.29l0,0l35.43,-20.52c9,-5.43 14.49,-9.7 18.29,-16.67l5.35,-9.26a28.31,28.31 0 0 0 0.03,-28.32z" id="svg_9"/>
  <path class="cls-1" d="m257.175625,21.870312c-1.52,-2.09 -5,-3 -8.81,-0.71c-42.56,25.94 -81.8,64.82 -116.63,115.56a0.58,0.58 0 0 1 -0.47,0.25a1.27,1.27 0 0 1 -1,-0.35l-19.3,-19.62l-13,-12.45c-9.77,-9.93 -27,-4.14 -33.19,1.62l-0.88,0.83l0.76,0.94c2.2,2.74 53.92,67 61.39,72.33a10.62,10.62 0 0 0 6.15,1.72a16.52,16.52 0 0 0 3.87,-0.48a21.61,21.61 0 0 0 13.79,-11.54l0.82,-1.6c28.2,-55.92 65.24,-105.09 104.28,-138.45c3.68,-3.1 3.49,-6.29 2.22,-8.05z" id="svg_10"/>
 </g>
</svg>